<?xml version="1.0" encoding="UTF-8"?>
<svg id="Calque_1" xmlns="http://www.w3.org/2000/svg" version="1.1" viewBox="0 0 384 384">
  <!-- Generator: Adobe Illustrator 30.1.0, SVG Export Plug-In . SVG Version: 2.1.1 Build 136)  -->
  <defs>
    <style>
      .st0 {
        fill: #fff;
      }
    </style>
  </defs>
  <path class="st0" d="M0,384V0h384v384H0ZM21.04,266.6l33.84,19.35,23.27,81.35c.78,2.73,2.87,4.7,6.02,4.7h281.69c4.21,0,6.74-3.64,5.97-7.39l-12.98-63.14c14.08-23.17,20.75-48.86-1.45-69.5,10.11-4.8,15.61-14.48,14.34-25-1.2-9.84-8.41-18.16-18.86-20.53-3.41-14.87-4.88-29.5-4.88-44.65v-26.94c-.02-55.88-45.27-102.3-101.24-102.71-56.23-.41-102.61,45.79-102.71,101.96l-.05,29.92c-.03,14.41-1.71,28.26-4.84,42.4-10.43,2.37-17.71,10.7-18.91,20.45-1.3,10.62,4.19,20.31,14.44,25.06-21.54,19.96-15.76,43.91-4.03,67.49l-5.69,27.01-22.64-45.23,4.24-21.69c1.27-6.51-2.27-12.7-7.38-15.57-5.68-3.18-12.64-2.49-17.45,1.98l-5.31,4.94-40.92-16.27c-8.63-3.43-18.12,1.37-21.73,9.02-3.89,8.23-1.14,18.17,7.28,22.98ZM77.72,150.65l1.66-8.47,6.98,2.5c16.24,5.82,34.58-2.81,39.48-19.53,1.24-4.23-2.97-5.98-5.85-7.28-15.12-6.78-32.38-2.13-40.81,12.74-1.2-5.26-3.43-21.09-12.25-16.8-2.87,1.4-4.14,4.79-2.75,7.98,3.38,7.76,4.58,16.35,1.87,24.6-8.16-6.14-17.76-9.52-27.81-8.4-8.54.95-15,6.47-19.06,14.12-7.86,14.78-7.02,33.52,2.27,47.55,6.21,9.37,16.32,14.07,27.18,13.84,5.76,4.55,12.02,8.28,19.7,7.88,21.52-1.12,39.68-17.78,42.56-38.98,2.62-19.26-14.94-31.27-33.18-31.76Z"/>
  <path d="M21.04,266.6c-8.42-4.81-11.17-14.75-7.28-22.98,3.62-7.65,13.1-12.46,21.73-9.02l40.92,16.27,5.31-4.94c4.81-4.47,11.77-5.16,17.45-1.98,5.11,2.86,8.65,9.06,7.38,15.57l-4.24,21.69,22.64,45.23,5.69-27.01c-11.73-23.57-17.5-47.52,4.03-67.49-10.25-4.74-15.74-14.44-14.44-25.06,1.19-9.75,8.47-18.08,18.91-20.45,3.14-14.14,4.82-27.99,4.84-42.4l.05-29.92c.1-56.17,46.48-102.38,102.71-101.96,55.98.41,101.23,46.83,101.24,102.71v26.94c0,15.15,1.48,29.78,4.89,44.65,10.45,2.37,17.66,10.68,18.86,20.53,1.28,10.52-4.23,20.21-14.34,25,22.2,20.64,15.53,46.33,1.45,69.5l12.98,63.14c.77,3.75-1.76,7.39-5.97,7.39H84.16c-3.14,0-5.24-1.97-6.02-4.7l-23.27-81.35-33.84-19.35ZM274.07,70l12.61,44.62c1.94,6.86,8.56,11.33,15.47,11.35l15.89.06c3.64.01,6.09,3.1,5.91,6.32-.16,2.88-2.52,5.56-5.91,5.61l-6.03.08-.08,29.98c-.06,22.31-11.55,42.39-29.93,54.61l.03,30.63,58.71,14.27c7.67,1.86,12.83,7.32,14.38,15.36,2.34-5.72,4.5-11.62,4.74-18.13.61-17-13.07-30.56-29.83-30.8-3.79-.05-6.14-3.08-5.99-6.33.13-2.88,2.51-5.57,5.92-5.61,6.54-.07,12.93.15,19.33-.33s11.06-7.07,10.61-12.73c-.49-6.19-5.47-10.8-11.95-11-2.65-.08-5.14-1.93-5.8-4.58-3.94-16.05-6.11-32.03-6.15-48.61l-.09-31.49c-.14-48.89-40.87-89.16-89.93-89.14-49.35.01-89.84,40.72-89.96,89.89l-.08,30.75c-.04,16.59-2.21,32.56-6.13,48.61-.65,2.66-3.15,4.5-5.81,4.58-6.71.21-11.84,5.15-11.98,11.68-.11,5.35,4.38,11.61,10.64,12.05s12.8.26,19.34.33c3.67.04,6.12,3.06,5.92,6.31-.17,2.86-2.47,5.58-5.97,5.62-16.52.22-29.94,13.3-29.91,30.01.01,5.07,1.22,9.68,3.01,14.61,3.13-6.26,7.52-9.69,13.92-11.18l60.98-14.2v-31.06c-19.52-13.44-30.12-35.12-30.04-58.63l.1-25.49-6.07-.09c-3.65-.05-6.09-3.05-5.91-6.32.16-2.84,2.48-5.61,5.96-5.61l56.24-.07c9.88-.01,18-6.75,20.62-15.97l11.46-40.36c.79-2.78,3.3-4.51,5.79-4.52,2.71-.01,5.05,1.7,5.95,4.89ZM241.9,220.96c31.41,2.7,58.03-22.14,58.05-52.93v-30.15c-10.76-1.12-20.85-7.35-23.98-17.85l-7.89-26.54-5.66,19.73c-4.12,14.36-16.84,24.71-32.15,24.74l-38.27.07.08,29.31c.08,27.59,21.66,51.21,49.82,53.63ZM270.06,253.61l-.1-24.68c-15.75,5.71-32.18,5.97-47.97-.35l.09,25.23c16.08,5.18,32.47,5.28,47.98-.2ZM89.68,282.69l5.05-24.79c.22-1.08-.53-3.2-1.43-3.59-.74-.32-3-.14-3.62.48l-7.06,7.08c-1.61,1.62-4.38,2.65-6.64,1.74l-44.32-17.71c-2.78-1.11-5.91.58-6.93,2.61-1.32,2.61-.6,6.01,2.06,7.54l35.76,20.45c1.42.81,2.85,2.47,3.34,4.17l22.65,79.34,39.66-.16-38.51-77.17ZM217.4,321.04l22.55,11.13.03-18.69-27.04-48.61-14.15,3.36,4.54,27.17,14.13,4.75c3.4,1.14,5.3,4.31,4.15,7.86l-4.21,13.03ZM270.11,306.97c-.89-2.78,1.7-5.85,3.8-6.56l14.77-4.99,4.47-27.09-14.08-3.44-27.05,48.58.04,18.71,22.55-11.15-4.5-14.06ZM263.48,268.13c-11.97,2.15-22.99,2.15-34.96,0l17.48,31.49,17.48-31.49ZM174.06,360h65.94s-.02-14.29-.02-14.29l-33.46-16.79c-1.79-.9-2.89-4.53-2.36-6.17l4.19-12.96-11.88-3.97c-2.11-.76-4.01-2.72-4.4-5.04l-5-29.85-36.01,8.32c-2.5.58-4.41,2.4-4.84,4.98l-12.62,59.35,8.1,16.43h20.31s.03-24.04.03-24.04c0-3.65,3.13-6.1,6.33-5.92,2.86.16,5.6,2.51,5.61,5.92l.09,24.04ZM317.99,359.99l.03-24.03c0-3.64,3.14-6.09,6.32-5.92,2.97.16,5.47,2.52,5.66,5.92v24.04s28.62-.01,28.62-.01l-15.62-75.99c-.6-2.13-2.3-4.12-4.41-4.63l-33.69-8.17-4.96,29.58c-.34,2.06-2.07,3.98-3.83,4.85l-12.44,4.19,4.12,12.86c.81,2.54-.89,5.61-3.22,6.77l-32.55,16.26v14.29s65.97-.01,65.97-.01Z"/>
  <path d="M77.72,150.65c18.23.5,35.8,12.5,33.18,31.76-2.89,21.21-21.05,37.86-42.56,38.98-7.68.4-13.95-3.34-19.7-7.88-10.87.23-20.98-4.47-27.18-13.84-9.29-14.02-10.13-32.76-2.27-47.55,4.07-7.64,10.53-13.17,19.06-14.12,10.05-1.12,19.65,2.26,27.81,8.4,2.7-8.25,1.51-16.84-1.87-24.6-1.39-3.2-.12-6.59,2.75-7.98,8.82-4.29,11.04,11.54,12.25,16.8,8.43-14.87,25.69-19.52,40.81-12.74,2.88,1.29,7.09,3.04,5.85,7.28-4.9,16.72-23.24,25.34-39.48,19.53l-6.98-2.5-1.66,8.47ZM111,127.6c-7.54-2.19-14.62.23-19.4,5.99,7.33,2.33,15.14-.1,19.4-5.99ZM74.37,208.78c12.61-3.77,22.41-14.45,24.54-27.09.94-5.58-1.09-10.44-5.26-13.61-6.95-5.27-15.64-6.54-24.11-4.02-7.13,2.13-5.58-10.7-24.54-14.11-6.55-1.18-12.03,1.53-15.21,7.63-5.75,11.03-5.33,25.21,1.81,35.61,4.36,6.36,11.32,9.21,18.68,7.93,1.63-.28,4.18.86,5.23,2.05,4.69,5.32,11.44,7.82,18.86,5.61Z"/>
  <path class="st0" d="M274.07,70c-.9-3.2-3.24-4.9-5.95-4.89-2.49,0-5,1.74-5.79,4.52l-11.46,40.36c-2.62,9.22-10.74,15.96-20.62,15.97l-56.24.07c-3.47,0-5.8,2.77-5.96,5.61-.18,3.27,2.26,6.26,5.91,6.32l6.07.09-.1,25.49c-.09,23.51,10.51,45.19,30.05,58.63v31.06s-60.99,14.2-60.99,14.2c-6.4,1.49-10.79,4.92-13.92,11.18-1.79-4.93-3-9.54-3.01-14.61-.03-16.71,13.38-29.79,29.91-30.01,3.51-.05,5.8-2.76,5.97-5.62.19-3.26-2.26-6.27-5.92-6.31-6.54-.07-12.93.12-19.34-.33s-10.76-6.7-10.64-12.05c.14-6.53,5.28-11.46,11.98-11.68,2.66-.08,5.15-1.92,5.81-4.58,3.92-16.05,6.09-32.03,6.13-48.61l.08-30.75c.13-49.17,40.61-89.88,89.96-89.89,49.05-.01,89.79,40.26,89.93,89.14l.09,31.49c.05,16.59,2.21,32.56,6.15,48.61.65,2.66,3.14,4.5,5.8,4.58,6.48.2,11.46,4.81,11.95,11,.45,5.66-4.11,12.24-10.61,12.73s-12.79.26-19.33.33c-3.41.04-5.79,2.73-5.92,5.61-.15,3.25,2.2,6.27,5.99,6.33,16.75.24,30.44,13.8,29.83,30.8-.24,6.51-2.4,12.41-4.74,18.13-1.55-8.04-6.72-13.5-14.38-15.36l-58.71-14.27-.03-30.63c18.38-12.22,29.86-32.3,29.93-54.61l.08-29.98,6.03-.08c3.39-.05,5.75-2.73,5.91-5.61.18-3.22-2.27-6.3-5.91-6.32l-15.89-.06c-6.92-.03-13.53-4.49-15.47-11.35l-12.61-44.62Z"/>
  <path class="st0" d="M241.9,220.96c-28.16-2.42-49.74-26.04-49.82-53.63l-.08-29.31,38.27-.07c15.31-.03,28.03-10.37,32.15-24.74l5.66-19.73,7.89,26.54c3.12,10.5,13.22,16.73,23.99,17.85v30.15c-.03,30.79-26.65,55.64-58.06,52.93ZM220.43,170.61c2.37-4.4,2.04-8.81-.62-12.6-.69-.98-2.97-2.09-4.1-1.98-4.65.43-7.74,8.27-4.02,14.8.83,1.46,3.16,2.71,4.65,2.64,1.19-.05,3.34-1.47,4.09-2.86ZM280.43,170.6c2.38-4.39,2.04-8.8-.62-12.6-.69-.98-2.97-2.09-4.1-1.98-4.66.43-7.75,8.3-4.01,14.79.86,1.49,3.07,2.7,4.66,2.65,1.18-.04,3.32-1.47,4.08-2.86ZM256.01,196.88c-8.49,4.72-22.29,2.83-23.66-5.44-.47-2.84-2.86-4.33-5.35-3.8-1.98.42-3.71,2.71-3.49,5.09.45,4.93,3.2,8.91,7.4,11.54,9.11,5.69,21.07,5.67,30.2,0,4.19-2.61,6.94-6.66,7.38-11.51.25-2.75-1.72-5.04-4.13-5.22-6.14-.45-3.14,6.45-8.34,9.34Z"/>
  <path class="st0" d="M174.06,360l-.09-24.04c-.01-3.41-2.76-5.76-5.61-5.92-3.2-.18-6.33,2.27-6.33,5.92l-.03,24.04h-20.31s-8.1-16.43-8.1-16.43l12.62-59.35c.43-2.58,2.34-4.4,4.84-4.98l36.01-8.32,5,29.85c.39,2.33,2.29,4.28,4.4,5.04l11.88,3.97-4.19,12.96c-.53,1.64.57,5.27,2.36,6.17l33.46,16.79.02,14.29h-65.94Z"/>
  <path class="st0" d="M317.99,359.99h-65.98s.01-14.28.01-14.28l32.55-16.26c2.33-1.16,4.03-4.24,3.22-6.77l-4.12-12.86,12.44-4.19c1.76-.87,3.48-2.79,3.83-4.85l4.96-29.58,33.69,8.17c2.11.51,3.82,2.5,4.41,4.63l15.62,75.99h-28.63s0-24.03,0-24.03c-.2-3.4-2.69-5.76-5.66-5.92-3.18-.17-6.32,2.27-6.32,5.92l-.03,24.03Z"/>
  <path class="st0" d="M89.68,282.69l38.51,77.17-39.66.16-22.65-79.34c-.49-1.7-1.92-3.36-3.34-4.17l-35.76-20.45c-2.67-1.53-3.38-4.92-2.06-7.54,1.02-2.03,4.15-3.72,6.93-2.61l44.32,17.71c2.26.9,5.03-.13,6.64-1.74l7.06-7.08c.62-.62,2.88-.8,3.62-.48.89.38,1.65,2.51,1.43,3.59l-5.05,24.79Z"/>
  <path class="st0" d="M217.4,321.04l4.21-13.03c1.15-3.55-.75-6.72-4.15-7.86l-14.13-4.75-4.54-27.17,14.15-3.36,27.04,48.61-.03,18.69-22.55-11.13Z"/>
  <path class="st0" d="M270.11,306.97l4.5,14.06-22.55,11.15-.04-18.71,27.05-48.58,14.08,3.44-4.47,27.09-14.77,4.99c-2.1.71-4.69,3.78-3.8,6.56Z"/>
  <path class="st0" d="M270.06,253.61c-15.51,5.48-31.9,5.39-47.98.2l-.09-25.23c15.79,6.33,32.22,6.06,47.97.35l.1,24.68Z"/>
  <path class="st0" d="M263.48,268.13l-17.48,31.49-17.48-31.49c11.97,2.15,22.99,2.15,34.96,0Z"/>
  <path class="st0" d="M74.37,208.78c-7.41,2.22-14.17-.29-18.86-5.61-1.05-1.19-3.6-2.34-5.23-2.05-7.36,1.28-14.31-1.57-18.68-7.93-7.14-10.39-7.56-24.57-1.81-35.61,3.18-6.1,8.66-8.81,15.21-7.63,18.96,3.41,17.41,16.24,24.54,14.11,8.47-2.53,17.16-1.25,24.11,4.02,4.17,3.16,6.2,8.02,5.26,13.61-2.13,12.64-11.93,23.32-24.54,27.09Z"/>
  <path class="st0" d="M111,127.6c-4.26,5.9-12.07,8.32-19.4,5.99,4.78-5.76,11.86-8.18,19.4-5.99Z"/>
  <path d="M256.01,196.88c5.2-2.89,2.2-9.79,8.34-9.34,2.41.18,4.38,2.47,4.13,5.22-.44,4.85-3.18,8.9-7.38,11.51-9.13,5.67-21.08,5.69-30.2,0-4.2-2.63-6.95-6.61-7.4-11.54-.22-2.38,1.51-4.67,3.49-5.09,2.49-.52,4.88.97,5.35,3.8,1.37,8.28,15.17,10.16,23.66,5.44Z"/>
  <path d="M220.43,170.61c-.75,1.39-2.9,2.81-4.09,2.86-1.49.06-3.82-1.19-4.65-2.64-3.72-6.54-.63-14.37,4.02-14.8,1.12-.1,3.41,1,4.1,1.98,2.67,3.79,3,8.2.62,12.6Z"/>
  <path d="M280.43,170.6c-.75,1.39-2.89,2.82-4.08,2.86-1.59.05-3.8-1.16-4.66-2.65-3.73-6.49-.64-14.36,4.01-14.79,1.12-.1,3.41,1,4.1,1.98,2.66,3.79,3,8.2.62,12.6Z"/>
</svg>