<?xml version="1.0" encoding="UTF-8"?>
<svg id="Calque_1" xmlns="http://www.w3.org/2000/svg" version="1.1" viewBox="0 0 384 384">
  <!-- Generator: Adobe Illustrator 30.1.0, SVG Export Plug-In . SVG Version: 2.1.1 Build 136)  -->
  <defs>
    <style>
      .st0 {
        fill: #fff;
      }
    </style>
  </defs>
  <path class="st0" d="M0,384V0h384v384H0ZM330.73,372.74c4.03,0,3.71-4.6,3.81-6.66,1.57-31.6-15.74-60.03-44.63-72.7l-65.44-28.71c-.8-.35-1.96-1.77-2.05-2.27,7.76-.88,14.18-1.08,21.14-3.04,23.15-6.52,38.93-26.69,38.92-50.86l-.05-77.26c-.02-23.17-9.22-44.38-24.73-61.11l4.95-20.74c.36-1.52-1.03-4.33-2.49-4.93-7.73-3.16-14.96-5.52-22.82-7.82l2.74-10.46c.67-2.58-.88-4.78-3.37-5.85-28.46-12.14-60.9-12.11-89.36,0-2.51,1.07-4.07,3.22-3.39,5.85l2.73,10.46c-7.65,2.28-14.75,4.59-22.3,7.56-1.8.71-3.46,3.28-3,5.21l5.08,21.35c-15.45,16.84-24.2,38.11-24.2,61.23l-.02,76.51c0,23.98,15.49,44.04,38.36,50.73,6.9,2.02,13.32,2.27,21.06,3.17-.33.74-1.58,2.05-2.67,2.52l-65.39,28.72c-28.99,12.73-45.92,41.61-44.13,73.16.09,1.57.32,3.48,1.09,4.51.64.86,2.62,1.46,4.39,1.46l275.8-.02Z"/>
  <path d="M330.73,372.74l-275.8.02c-1.77,0-3.75-.6-4.39-1.46-.76-1.03-1-2.93-1.09-4.51-1.78-31.55,15.14-60.43,44.13-73.16l65.39-28.72c1.09-.48,2.34-1.78,2.67-2.52-7.75-.89-14.16-1.15-21.06-3.17-22.88-6.68-38.37-26.75-38.36-50.73l.02-76.51c0-23.12,8.75-44.39,24.2-61.23l-5.08-21.35c-.46-1.93,1.2-4.5,3-5.21,7.55-2.98,14.65-5.28,22.3-7.56l-2.73-10.46c-.69-2.62.88-4.78,3.39-5.85,28.46-12.12,60.9-12.15,89.36,0,2.49,1.06,4.05,3.27,3.37,5.85l-2.74,10.46c7.86,2.3,15.09,4.66,22.82,7.82,1.46.6,2.86,3.41,2.49,4.93l-4.95,20.74c15.51,16.72,24.71,37.93,24.73,61.11l.05,77.26c.02,24.17-15.77,44.34-38.92,50.86-6.96,1.96-13.38,2.16-21.14,3.04.1.5,1.26,1.92,2.05,2.27l65.44,28.71c28.89,12.67,46.2,41.1,44.63,72.7-.1,2.06.22,6.66-3.81,6.66ZM228.48,34.75l1.73-7.44c-25.07-9.5-51.96-9.43-76.59.13l2.23,7.37c24.64-4.66,48.34-4.39,72.63-.06ZM242.53,94.46l10.41-43.19c-19.84-7.81-39.97-10.7-60.96-10.89-21.07.22-41.64,3.11-60.95,11l10.47,43.14c32.52-14.61,68.97-14.29,101.02-.06ZM123.11,164.02l-.07-21.57c0-2.42,1.99-4.44,4.38-4.68l24.06-.14c23.53-.14,45.91-8.12,65.23-21.69,26.77,3.66,45.31,26.84,44.24,53.63-1.25,31.14-16.44,59.28-41.85,77.32l-.15,6.64c6.75-.64,12.57-.79,18.92-2.06,20.88-4.17,35.61-21.68,35.6-42.99l-.05-77.24c-.01-18.72-6.75-35.97-18.27-50.36l-5.23,21.31c-.33,1.33-1.88,3.22-3.04,3.46-1.09.22-3.3-.26-4.42-.86-29.92-16.14-71.05-16.09-100.93,0-1.35.73-3.72,1.16-4.97.66-.95-.39-2.18-2.12-2.46-3.27l-5.1-20.37c-11.7,14.44-17.74,31.74-17.75,50.2l-.02,76.51c0,20.83,14.07,38.06,34.29,42.7,6.51,1.49,12.55,1.67,19.5,2.23.02-2.73-.05-4.59-.4-7.02-25.93-19.47-41.41-49.55-41.52-82.39ZM192.09,251.46c35.98-14.15,59.88-46.89,59.78-84.95-.05-19.95-13.65-36.7-33.04-41.12-19.72,13.14-42.31,20.91-66.11,21.21l-20.64.26.04,18.19c.08,38.13,24.26,72.43,59.97,86.41ZM209.62,253.17c-22.23,10.63-14.26,9.06-35.46.04.24,6.5-2.07,11.99-6.05,16.38,4.95,9.46,14.25,14.41,24.17,14.32,9.82-.09,19.1-5.26,23.66-14.48-4.62-4.45-6.01-10.37-6.31-16.25ZM156.84,320.19c1.51.91,2.56,2.19,3.72,3.82l-6.24-47.18-16.39,7.18-4.7,31.75,23.61,4.43ZM250.8,315.55l-4.75-31.54-16.35-7.2-6.26,47.2c.99-1.41,2.27-3.43,3.76-3.73l23.61-4.74ZM209.15,363.66l10.93-83.5c-15.85,17.07-40.31,17.06-56.16,0l11,83.64,34.23-.15ZM136.09,336.68l9.78-9.23-19.52-3.9c-1.5-.77-2.95-2.94-2.68-4.77l4.49-30.46-32.42,14.27c-24.03,10.58-38.18,34.74-37.26,61.17l96.06-.06-18.12-19.36c-2.16-2.31-3.08-5.08-.33-7.67ZM248.25,343.57l-18.78,20.13,96.04.07c.92-26.63-13.46-50.8-37.68-61.42l-32.01-14.03,4.49,30.44c.32,2.14-1.36,4.38-3.24,4.9l-18.95,3.77,9.64,9.09c2.06,1.94,2.67,4.85.48,7.04ZM165.42,361.86l-4.6-36.18-15.63,14.88,20.23,21.3ZM238.8,340.52l-15.63-14.84-4.6,36.29,20.23-21.44Z"/>
  <path class="st0" d="M192.09,251.46c-35.71-13.98-59.89-48.28-59.97-86.41l-.04-18.19,20.64-.26c23.79-.3,46.38-8.07,66.11-21.21,19.39,4.42,32.99,21.18,33.04,41.12.1,38.07-23.8,70.81-59.78,84.95Z"/>
  <path class="st0" d="M123.11,164.02c.11,32.84,15.58,62.92,41.52,82.39.35,2.43.42,4.29.4,7.02-6.94-.55-12.98-.73-19.5-2.23-20.22-4.64-34.3-21.87-34.29-42.7l.02-76.51c0-18.46,6.05-35.75,17.75-50.2l5.1,20.37c.29,1.15,1.51,2.88,2.46,3.27,1.24.51,3.61.07,4.97-.66,29.88-16.09,71.01-16.13,100.93,0,1.12.6,3.33,1.08,4.42.86,1.16-.24,2.71-2.12,3.04-3.46l5.23-21.31c11.52,14.39,18.26,31.63,18.27,50.36l.05,77.24c.01,21.31-14.72,38.83-35.6,42.99-6.35,1.27-12.17,1.42-18.92,2.06l.15-6.64c25.4-18.04,40.6-46.17,41.85-77.32,1.07-26.79-17.47-49.98-44.24-53.63-19.32,13.57-41.7,21.55-65.23,21.69l-24.06.14c-2.39.24-4.39,2.26-4.38,4.68l.07,21.57Z"/>
  <path class="st0" d="M242.53,94.46c-32.06-14.23-68.5-14.55-101.02.06l-10.47-43.14c19.3-7.89,39.87-10.78,60.95-11,20.98.18,41.11,3.08,60.96,10.89l-10.41,43.19ZM196.51,72.55v-5.82s7.33-.29,7.33-.29c2.24-.09,3.97-3.23,3.58-4.99-.5-2.28-2.48-3.83-4.77-3.85l-5.99-.06-.36-7.29c-.12-2.47-3.19-3.98-5.3-3.5s-3.5,2.59-3.52,4.85l-.07,5.91-6.79.19c-2.4.07-4.27,2.59-4.08,4.85.15,1.8,2.23,3.98,4.17,4.02l6.72.11.17,6.95c.06,2.37,2.7,4.06,4.74,3.9,2.32-.18,4.17-2.13,4.17-4.98Z"/>
  <path class="st0" d="M248.25,343.57c2.19-2.19,1.57-5.1-.48-7.04l-9.64-9.09,18.95-3.77c1.88-.52,3.56-2.76,3.24-4.9l-4.49-30.44,32.01,14.03c24.22,10.62,38.6,34.79,37.68,61.42l-96.04-.07,18.78-20.13Z"/>
  <path class="st0" d="M136.09,336.68c-2.75,2.59-1.83,5.36.33,7.67l18.12,19.36-96.06.06c-.92-26.43,13.23-50.59,37.26-61.17l32.42-14.27-4.49,30.46c-.27,1.83,1.18,4,2.68,4.77l19.52,3.9-9.78,9.23Z"/>
  <path class="st0" d="M209.15,363.66l-34.23.15-11-83.64c15.85,17.05,40.3,17.07,56.16,0l-10.93,83.5Z"/>
  <path class="st0" d="M209.62,253.17c.3,5.89,1.69,11.8,6.31,16.25-4.56,9.23-13.83,14.39-23.66,14.48-9.92.09-19.22-4.86-24.17-14.32,3.98-4.39,6.29-9.88,6.05-16.38,21.19,9.02,13.23,10.6,35.46-.04Z"/>
  <path class="st0" d="M250.8,315.55l-23.61,4.74c-1.49.3-2.76,2.32-3.76,3.73l6.26-47.2,16.35,7.2,4.75,31.54Z"/>
  <path class="st0" d="M156.84,320.19l-23.61-4.43,4.7-31.75,16.39-7.18,6.24,47.18c-1.17-1.64-2.22-2.91-3.72-3.82Z"/>
  <path class="st0" d="M228.48,34.75c-24.29-4.33-47.99-4.6-72.63.06l-2.23-7.37c24.62-9.56,51.52-9.62,76.59-.13l-1.73,7.44Z"/>
  <polygon class="st0" points="238.8 340.52 218.57 361.96 223.17 325.68 238.8 340.52"/>
  <polygon class="st0" points="165.42 361.86 145.19 340.57 160.82 325.69 165.42 361.86"/>
  <path d="M196.51,72.55c0,2.84-1.86,4.79-4.17,4.98-2.05.16-4.69-1.53-4.74-3.9l-.17-6.95-6.72-.11c-1.94-.03-4.02-2.22-4.17-4.02-.18-2.26,1.68-4.78,4.08-4.85l6.79-.19.07-5.91c.03-2.26,1.49-4.39,3.52-4.85s5.18,1.03,5.3,3.5l.36,7.29,5.99.06c2.29.02,4.27,1.57,4.77,3.85.39,1.76-1.35,4.9-3.58,4.99l-7.32.29v5.82Z"/>
</svg>