<?xml version="1.0" encoding="UTF-8"?>
<svg id="Calque_1" xmlns="http://www.w3.org/2000/svg" version="1.1" viewBox="0 0 384 384">
  <!-- Generator: Adobe Illustrator 30.1.0, SVG Export Plug-In . SVG Version: 2.1.1 Build 136)  -->
  <defs>
    <style>
      .st0 {
        fill: #fff;
      }
    </style>
  </defs>
  <path class="st0" d="M252.75,0h131.25v384h-72.05c.84-.9,3.04-2.94,3.04-4.51l-.24-100.5c-.04-18.29-9.97-34.43-23.5-46.03-16.79-14.38-38.16-20.12-60.26-19.14l.07-23.1c18.36-10.48,31.4-27.09,37.44-47.41,8.83.03,16.27-4.49,20.15-11.27,4.39-7.66,4.09-16.66-.71-23.88-3.88-5.85-10.03-9.01-17.18-9.18-.18-5.58.47-10.95-.04-16.55l-6.24-68.52c-.64-7.05-6.07-11.53-11.73-13.9Z"/>
  <path class="st0" d="M131.25,0c-5.65,2.37-11.09,6.86-11.73,13.91l-6.23,68.51c-.51,5.61.14,10.98-.04,16.56-7.14.17-13.29,3.34-17.18,9.18-4.8,7.21-5.11,16.23-.71,23.88,3.89,6.76,11.34,11.31,20.15,11.27,6.04,20.26,18.97,36.83,37.42,47.4l.1,23.1c-21.58-.93-42.41,4.47-59.07,18.15-14.18,11.65-24.66,28.18-24.71,47.02l-.24,100.51c0,1.56,2.22,3.61,3.04,4.51H0V0h131.25Z"/>
  <path d="M252.75,0c5.66,2.37,11.09,6.85,11.73,13.9l6.24,68.52c.51,5.6-.14,10.98.04,16.55,7.15.18,13.3,3.33,17.18,9.18,4.8,7.23,5.1,16.22.71,23.88-3.89,6.78-11.33,11.3-20.15,11.27-6.04,20.31-19.07,36.93-37.44,47.41l-.07,23.1c22.1-.98,43.47,4.76,60.26,19.14,13.54,11.59,23.46,27.74,23.5,46.03l.24,100.5c0,1.57-2.2,3.6-3.04,4.51H72.05c-.83-.9-3.04-2.95-3.04-4.51l.24-100.51c.05-18.84,10.53-35.37,24.71-47.02,16.65-13.68,37.49-19.08,59.07-18.15l-.1-23.1c-18.45-10.57-31.38-27.15-37.42-47.4-8.81.04-16.25-4.51-20.15-11.27-4.4-7.65-4.09-16.67.71-23.88,3.89-5.85,10.04-9.01,17.18-9.18.18-5.58-.47-10.95.04-16.56l6.23-68.51c.64-7.06,6.08-11.54,11.73-13.91h121.5ZM259.71,76.49l-5.37-59.9c-.58-2.59-1.7-4.66-3.93-6.1h-116.8c-2.03,1.35-3.69,3.58-3.92,6.09l-5.39,59.92h135.42ZM152.65,87.2l-28.94-.26.2,12.52c11.04-.47,20.77-5.05,28.75-12.26ZM259.99,133.22c2.81-2.57,5.24-1.38,8.05-.84,7.14,1.37,12.94-4.49,13.21-11.3.23-5.89-4.94-13.08-11.75-11.96-9.77,1.62-18.71,1.41-27.98-2.71-10.13-4.5-18.77-11.02-26.39-19.41h-46.25c-13.54,14.73-33.75,27.52-54.33,21.75-6.92.15-12.01,5.77-11.79,12.39s5.56,12.23,12.57,11.35c2.67-.34,6.59-1.3,8.63.77,5.94,33.5,34.94,57.39,68.4,57.21,33.12-.17,61.86-23.92,67.63-57.26ZM260.23,86.94l-29.15.17c7.07,6.5,19.24,12.54,29.11,12.28l.04-12.45ZM201.26,269.94l19.25-53.23-.09-20.89c-18.71,6.91-38.14,6.9-56.83,0l-.05,20.85,19.22,53.33,18.49-.07ZM270.76,316.88v56.62s33.75,0,33.75,0v-92.97c-1.99-38.6-40.04-59.29-75.65-56.12l-31.6,88.34c-.88,2.45-3.41,3.83-5.63,3.72-1.74-.08-4.12-1.57-4.89-3.72l-31.6-88.36c-35.56-3.16-73.68,17.56-75.64,56.12v92.97s33.75,0,33.75,0v-57c.17-3.37,2.6-5.38,5.64-5.22,2.4.13,4.86,2.15,4.86,5.21v57s136.5,0,136.5,0v-56.99c0-3.39,2.76-5.38,5.6-5.22,2.58.15,4.86,2.04,4.91,5.58ZM197.45,280.56l-10.92-.05,5.48,14.62,5.44-14.56Z"/>
  <path class="st0" d="M270.76,316.88c-.04-3.55-2.33-5.43-4.91-5.58-2.84-.17-5.59,1.83-5.59,5.22v56.99s-136.51,0-136.51,0v-57c0-3.07-2.46-5.08-4.86-5.21-3.04-.17-5.47,1.85-5.64,5.22v57s-33.75,0-33.75,0v-92.97c1.96-38.56,40.09-59.28,75.65-56.12l31.6,88.36c.77,2.14,3.15,3.63,4.89,3.72,2.22.1,4.75-1.27,5.63-3.72l31.6-88.34c35.61-3.17,73.65,17.52,75.64,56.12v92.97s-33.75,0-33.75,0v-56.62ZM243.38,362.26c3.62-.23,5.63-2.81,5.63-5.98v-24.05c0-3.5-2.45-5.99-6-5.98l-36.79.02c-2.87,0-5.21,2.34-5.21,5.19v25.61c0,2.83,2.35,5.19,5.21,5.19h37.16Z"/>
  <path class="st0" d="M259.99,133.22c-5.77,33.34-34.5,57.09-67.63,57.26-33.46.17-62.46-23.71-68.4-57.21-2.03-2.07-5.96-1.1-8.63-.77-7.01.88-12.36-4.99-12.57-11.35s4.87-12.24,11.79-12.39c20.58,5.76,40.79-7.02,54.33-21.74h46.25c7.62,8.38,16.26,14.9,26.39,19.4,9.27,4.12,18.21,4.32,27.98,2.71,6.81-1.13,11.98,6.07,11.75,11.96-.27,6.81-6.07,12.67-13.21,11.3-2.81-.54-5.24-1.73-8.05.84Z"/>
  <path class="st0" d="M259.71,76.49H124.29s5.39-59.9,5.39-59.9c.23-2.51,1.88-4.74,3.92-6.09h116.8c2.23,1.43,3.35,3.5,3.93,6.09l5.37,59.9ZM197.25,62.73v-13.99s13.54.04,13.54.04c3.31.01,5.74-1.87,5.92-4.93.17-2.79-1.82-5.57-5.18-5.58l-14.26-.03-.08-14.26c-.02-2.98-2.91-5.33-5.53-5.16-2.22.14-4.86,2.5-4.87,5.11l-.06,14.33-13.52-.05c-3.32-.01-5.74,1.87-5.93,4.93-.17,2.78,1.83,5.57,5.17,5.58l14.28.03.04,14.28c0,3.3,2.72,5.34,5.59,5.18,2.51-.14,4.89-2.14,4.89-5.49Z"/>
  <path class="st0" d="M201.26,269.94l-18.49.07-19.22-53.33.05-20.85c18.69,6.89,38.13,6.9,56.83,0l.09,20.89-19.25,53.23Z"/>
  <path class="st0" d="M152.65,87.2c-7.98,7.21-17.7,11.79-28.75,12.26l-.2-12.52,28.94.26Z"/>
  <path class="st0" d="M260.23,86.94l-.04,12.45c-9.88.27-22.04-5.77-29.11-12.28l29.15-.17Z"/>
  <polygon class="st0" points="197.45 280.56 192 295.12 186.52 280.5 197.45 280.56"/>
  <path d="M243.38,362.26h-37.16c-2.86-.01-5.21-2.37-5.21-5.2v-25.61c0-2.84,2.34-5.19,5.21-5.19l36.79-.02c3.55,0,6,2.48,6,5.98v24.05c0,3.17-2.01,5.76-5.63,5.98ZM238.51,351.74v-15s-27.01,0-27.01,0v15.01s27.01-.02,27.01-.02Z"/>
  <path d="M197.25,62.73c0,3.35-2.39,5.35-4.89,5.49-2.87.16-5.58-1.87-5.59-5.18l-.04-14.28-14.28-.03c-3.34,0-5.34-2.81-5.17-5.58.18-3.06,2.61-4.94,5.93-4.93l13.52.05.06-14.33c.01-2.61,2.65-4.97,4.87-5.11,2.62-.17,5.51,2.17,5.53,5.16l.08,14.26,14.26.03c3.36,0,5.35,2.79,5.18,5.58-.19,3.06-2.61,4.94-5.92,4.93l-13.54-.04v13.99Z"/>
  <polygon class="st0" points="238.51 351.74 211.5 351.76 211.5 336.75 238.5 336.75 238.51 351.74"/>
</svg>