<?xml version="1.0" encoding="UTF-8"?>
<svg id="Calque_1" xmlns="http://www.w3.org/2000/svg" version="1.1" viewBox="0 0 384 384">
  <!-- Generator: Adobe Illustrator 30.1.0, SVG Export Plug-In . SVG Version: 2.1.1 Build 136)  -->
  <defs>
    <style>
      .st0 {
        fill: #fff;
      }
    </style>
  </defs>
  <path class="st0" d="M0,279.75V0h384v336.75c-3.86-12.22-14.55-19.9-27.81-18.01-26.53,3.79-59.93,4.04-84.02-9.81,7.85-9.82,11.18-21.42,8.02-34.08-2.5-10.03-9.25-19.92-20.22-24.91,7.69-6.42,10.99-14.78,9.7-24.07-1.12-8.09-6.46-15.87-14.7-19.54-3.64-1.62-6.8-4.07-8.98-7.59-11.15-17.97-16.17-47.24-16.33-68.01,8.92-11.64,12.79-26.04,7.38-39.93-8.55-21.98-32.84-32.64-54.63-23.09-45.66,20.03-78.29,56.03-89.71,105.27-5.63,24.26-6.2,48.74-3.37,73.62h-51.07c-19.85.01-34.99,14.25-38.27,33.15ZM267.75,16.19c-22.66,3.71-36.86,24.93-33.13,46.5,3.74,21.65,24.32,36.18,45.82,32.79,21.97-3.47,36.95-24.17,33.4-46.05-3.5-21.56-23.65-36.92-46.1-33.25ZM314.98,247.12c-18.72,3.11-30.16,20.72-27.05,38.29s20.03,29.51,37.46,26.79c18.24-2.84,30.49-19.92,27.53-37.9-2.91-17.67-19.39-30.26-37.94-27.18Z"/>
  <path d="M384,336.75v9.75c-2.87,10.41-10.34,17.61-21.43,19.2-19.97,2.85-39.73,3.65-59.84,1.44-34.4-3.97-65.27-17.4-87.51-44.92H38.35c-19.87,0-34.69-14.09-38.35-32.71v-9.75c3.28-18.9,18.42-33.14,38.27-33.14h51.07c-2.83-24.89-2.26-49.38,3.37-73.63,11.42-49.23,44.05-85.24,89.71-105.27,21.79-9.56,46.08,1.11,54.63,23.09,5.41,13.9,1.54,28.29-7.38,39.93.16,20.77,5.18,50.04,16.33,68.01,2.19,3.52,5.34,5.97,8.98,7.59,8.24,3.67,13.58,11.45,14.7,19.54,1.28,9.29-2.01,17.66-9.7,24.07,10.97,4.98,17.71,14.88,20.22,24.91,3.16,12.66-.17,24.26-8.02,34.08,24.09,13.85,57.48,13.6,84.02,9.81,13.25-1.89,23.94,5.79,27.81,18.01ZM157.06,232.74c-2.28-32.03,2.69-64.01,26.95-86.18,7.82-7.15,16.59-12.1,26.19-16.48,10.31-4.7,17.23-14.33,17.28-25.84.04-9.17-5.05-17.58-11.62-22.4-7.69-5.63-17.52-7.4-26.29-3.96-13.36,5.23-25.26,12.4-36.59,21.18-46.11,35.72-58.68,91.77-51.36,147.54h54.44c1.42-4.37,1.36-8.8,1-13.86ZM242.21,242.55c7.06,1.81,13.27-3.03,15.14-8.93,1.94-6.12-.7-13.25-6.9-16.1-5.4-2.48-9.79-5.74-13.41-10.58-12.53-18.57-17.08-44.86-19.19-66.8-9.33,4.03-17.38,8.4-24.86,14.74,1.88,14.65,5.05,28.65,10,42.57,6.38,17.66,19.4,40.01,39.22,45.09ZM168.71,246.57l53.88-.04c-24.43-18.66-34.21-49.32-40.07-79.78-13.07,17.51-14.99,42.96-13.5,64.98.33,4.93.29,9.25-.31,14.83ZM262.55,266.44c-4.6-5.18-11.2-7.81-18.1-7.81l-80.18-.02-4.6,1.18h-61.34s-4.59-1.17-4.59-1.17l-56.25.05c-14.4.01-25.54,12.1-25.45,25.96.09,13.18,10.95,25.49,25.1,25.49l168.85.06-5.14-9.25c-6.37-11.46-.82-25.65,10.36-31.67s25.4-1.84,31.97,9.54c5.12,8.87,10.81,17.04,18.97,23.19,9.4-10.06,9.73-25.05.39-35.56ZM358.09,330.63c-34.35,4.68-69.12,3.8-98.39-15.07-11.61-7.48-20.23-18-26.99-30.04-2.97-5.28-8.79-8.25-14.59-5.89-3.48,1.41-5.99,4.98-6.82,7.82-1.2,4.1.23,7.09,2.13,10.56,19.23,35.15,51.97,53.06,91.27,57.24,19.19,2.04,38.09,1.32,57.11-1.65,6.89-1.08,11.14-6.99,10.16-13.52s-6.78-10.41-13.87-9.45Z"/>
  <path class="st0" d="M384,346.5v37.5H0v-94.5c3.66,18.62,18.48,32.71,38.35,32.71h176.87c22.24,27.52,53.11,40.96,87.51,44.92,20.11,2.21,39.87,1.41,59.84-1.44,11.09-1.58,18.57-8.79,21.43-19.2Z"/>
  <path d="M267.75,16.19c22.45-3.67,42.6,11.69,46.1,33.25,3.55,21.87-11.43,42.58-33.4,46.05-21.5,3.39-42.08-11.14-45.82-32.79-3.73-21.58,10.47-42.8,33.13-46.5ZM268.48,28.24c-15.98,3.3-25.08,18.83-21.78,33.7,3.33,15.02,18.14,24.44,32.89,21.51,15.47-3.07,25.33-18.02,22.2-33.27s-17.52-25.2-33.32-21.93Z"/>
  <path d="M314.98,247.12c18.55-3.08,35.04,9.51,37.94,27.18,2.96,17.98-9.3,35.06-27.53,37.9-17.43,2.72-34.31-9.05-37.46-26.79s8.33-35.18,27.05-38.29ZM315.75,259.18c-11.99,2.72-18.4,14.53-15.72,25.44,2.74,11.15,13.87,17.8,24.62,15.52,11.64-2.47,18.71-13.78,16.24-25-2.45-11.15-13.33-18.63-25.14-15.96Z"/>
  <path class="st0" d="M157.06,232.74c.36,5.05.42,9.49-1,13.87h-54.44c-7.32-55.78,5.25-111.83,51.36-147.55,11.33-8.77,23.23-15.95,36.59-21.18,8.77-3.43,18.6-1.66,26.29,3.96,6.58,4.81,11.67,13.23,11.62,22.4-.05,11.51-6.97,21.14-17.28,25.84-9.6,4.37-18.37,9.33-26.19,16.48-24.26,22.18-29.23,54.15-26.95,86.18Z"/>
  <path class="st0" d="M262.55,266.44c9.34,10.51,9.01,25.5-.39,35.56-8.15-6.15-13.84-14.32-18.97-23.19-6.57-11.38-20.84-15.53-31.97-9.54s-16.73,20.21-10.36,31.67l5.14,9.25-168.85-.06c-14.15,0-25.01-12.31-25.1-25.49-.1-13.86,11.05-25.95,25.45-25.96l56.25-.05,4.59,1.17h61.34s4.6-1.17,4.6-1.17l80.18.02c6.9,0,13.5,2.63,18.1,7.81Z"/>
  <path class="st0" d="M358.09,330.63c7.09-.97,12.93,3.16,13.87,9.45s-3.27,12.44-10.16,13.52c-19.02,2.98-37.92,3.69-57.11,1.65-39.3-4.17-72.04-22.09-91.27-57.24-1.9-3.47-3.33-6.46-2.13-10.56.83-2.84,3.34-6.4,6.82-7.82,5.8-2.35,11.63.61,14.59,5.89,6.77,12.04,15.38,22.56,26.99,30.04,29.27,18.87,64.04,19.75,98.39,15.07Z"/>
  <path class="st0" d="M242.21,242.55c-19.82-5.08-32.84-27.44-39.22-45.09-4.95-13.93-8.12-27.92-10-42.57,7.48-6.33,15.52-10.7,24.86-14.74,2.11,21.94,6.66,48.22,19.19,66.8,3.62,4.84,8.01,8.09,13.41,10.58,6.19,2.85,8.84,9.98,6.9,16.1-1.87,5.89-8.08,10.74-15.14,8.93Z"/>
  <path class="st0" d="M168.71,246.57c.61-5.58.65-9.91.31-14.83-1.49-22.02.43-47.48,13.5-64.98,5.86,30.45,15.64,61.11,40.07,79.78l-53.88.04Z"/>
  <path class="st0" d="M268.48,28.24c15.8-3.27,30.25,7.01,33.32,21.93s-6.73,30.21-22.2,33.27c-14.76,2.93-29.56-6.49-32.89-21.51-3.3-14.87,5.8-30.39,21.78-33.7Z"/>
  <path class="st0" d="M315.75,259.18c11.8-2.67,22.68,4.81,25.14,15.96,2.47,11.22-4.6,22.53-16.24,25-10.75,2.28-21.88-4.38-24.62-15.52-2.68-10.91,3.73-22.72,15.72-25.44Z"/>
</svg>