<?xml version="1.0" encoding="UTF-8"?>
<svg id="Calque_1" xmlns="http://www.w3.org/2000/svg" version="1.1" viewBox="0 0 384 384">
  <!-- Generator: Adobe Illustrator 30.1.0, SVG Export Plug-In . SVG Version: 2.1.1 Build 136)  -->
  <defs>
    <style>
      .st0 {
        fill: #fff;
      }
    </style>
  </defs>
  <path class="st0" d="M210,0h174v384h-63.75c14.09-2.65,25.45-12.69,28.41-26.41,3.16-14.63-3.19-28.81-15.97-36.56l-.1-32.74c-.04-11.48-3.41-22.53-9.91-31.91-1.78-2.56-5.53-2.35-7.55-.86-7.62,5.61,6.18,11.23,6.2,32.5l.02,28.61h-11.15s-.12-28.18-.12-28.18c-.08-19.88-16.38-35.49-35.89-35.19-19.03.29-34.79,15.81-34.76,35.45l.04,31.56c.03,25.78-20.19,46.73-45.61,47.33-25.05.59-47.39-19.31-47.54-45.07l-.1-17.99c3.95.76,7.35.75,11.24,0l.05,16.48c.06,19.89,16.24,35.47,35.61,35.3s35.02-15.65,35.02-35.31v-32.24c0-16.49,8.7-31.19,21.44-39.35,14.79-9.47,32.31-9.66,47.31-1.93,2.99,1.54,6.28-.09,7.5-2.76,1.15-2.54.31-5.8-2.76-7.38-18.46-9.52-40.31-8.92-58.38,2.74-15.83,10.21-26.35,28.42-26.35,48.7v32.24c-.01,13.68-11.25,24.29-24.51,24.05s-23.63-10.56-23.64-24.11l-.04-76.79c57.42-8.25,100.49-57.64,100.5-116.08,0-7.32-4.43-12.97-11.15-16.06l-.05-53.47c-.02-19.73-12.69-35.94-31-41.74-2.42-8.5-8.53-14.73-17.03-16.83Z"/>
  <path class="st0" d="M93.75,0c-8.27,2.4-14.98,7.87-16.93,16.97-18.21,5.42-30.96,21.46-31.01,40.82l-.14,54.26c-6.32,2.96-11.05,8.27-11.11,15.29-.5,58.71,42.8,108.55,100.45,116.84l.05,77.49c.02,32.14,26.8,57.34,58.05,57.18,31.56-.16,57.4-25.8,57.55-57.87l.17-33.67c.07-13.16,11.72-22.91,24.08-22.81,12.76.11,23.82,10.24,23.85,23.47l.06,33.06c-12.85,7.75-19.16,21.89-16,36.56,2.94,13.66,14.27,23.75,28.42,26.41H0V0h93.75Z"/>
  <path class="st0" d="M191.25,0c-10.62,2.85-18.19,11.79-17.15,22.9s9.74,19.01,20.85,19.07l11.28.06c9.05.05,15.82-5.66,19.84-13.28,11.02,3.57,20.37,14.55,20.41,26.79l.16,56.52c-6.13,2.97-11.08,8.31-11.06,15.35.08,32.1-18.16,60.97-45.57,74.99-30.01,15.35-65.18,11.2-90.9-9.53-2.92-2.35-6.43-1.87-8.44.91-1.59,2.21-1.46,5.55,1.31,7.79,29.07,23.47,68.92,28.28,103.02,10.91,30.82-15.7,51.78-48.21,51.75-84.39,0-3.22,2.91-5.66,5.6-5.62,2.97.03,5.62,2.34,5.62,5.63-.03,53.82-40.32,99.01-93.67,105.35-4,.48-6.8,4.03-6.8,8.05v46.51c0,3.46-2.46,5.9-5.67,5.96-2.24.04-5.54-2.11-5.54-5.24l-.06-47.22c0-4.01-2.77-7.57-6.78-8.05-53.36-6.35-93.65-51.51-93.67-105.35,0-3.29,2.66-5.59,5.61-5.62s5.53,2.41,5.57,5.78c.21,18.99,5.62,37.1,16.26,52.72,1.78,2.61,5.12,2.99,7.31,1.77,2.42-1.34,3.99-4.89,2.23-7.55-9.29-14.01-14.46-29.96-14.51-46.93-.02-7.46-4.55-13.11-11.13-16.21l-.23-52.04c-.06-13.85,7.51-27.16,20.91-31.27,3.83,7.89,11.24,13.48,20.47,13.31l12-.22c11.05-.2,19.16-9.84,19.46-20.35.3-10.58-7.12-18.74-17.22-21.49h78.75Z"/>
  <path d="M112.5,0c10.1,2.75,17.52,10.91,17.22,21.49-.3,10.51-8.41,20.15-19.46,20.35l-12,.22c-9.23.17-16.65-5.42-20.47-13.31-13.4,4.11-20.97,17.41-20.91,31.27l.23,52.04c6.58,3.1,11.11,8.75,11.13,16.21.05,16.97,5.22,32.92,14.51,46.93,1.76,2.66.19,6.21-2.23,7.55-2.19,1.21-5.53.84-7.31-1.77-10.64-15.62-16.05-33.73-16.26-52.72-.04-3.37-2.75-5.81-5.57-5.78s-5.61,2.33-5.61,5.62c.02,53.83,40.32,99,93.67,105.35,4.01.48,6.78,4.04,6.78,8.05l.06,47.22c0,3.13,3.3,5.28,5.54,5.24,3.21-.06,5.66-2.49,5.67-5.96v-46.51c0-4.02,2.81-7.57,6.81-8.05,53.34-6.34,93.63-51.53,93.67-105.35,0-3.29-2.65-5.59-5.62-5.63-2.7-.03-5.61,2.41-5.6,5.62.03,36.18-20.93,68.69-51.75,84.39-34.09,17.37-73.95,12.56-103.02-10.91-2.77-2.24-2.9-5.58-1.31-7.79,2-2.78,5.51-3.26,8.44-.91,25.72,20.73,60.9,24.88,90.9,9.53,27.41-14.02,45.64-42.89,45.57-74.99-.02-7.03,4.93-12.38,11.06-15.35l-.16-56.52c-.03-12.24-9.39-23.22-20.41-26.79-4.02,7.62-10.78,13.32-19.84,13.28l-11.28-.06c-11.1-.06-19.85-8.51-20.85-19.07-1.04-11.12,6.53-20.06,17.15-22.9h18.75c8.5,2.1,14.61,8.33,17.03,16.83,18.3,5.8,30.98,22.01,31,41.74l.05,53.47c6.72,3.09,11.15,8.74,11.15,16.06,0,58.45-43.08,107.83-100.5,116.08l.04,76.79c0,13.55,10.84,23.88,23.64,24.11s24.49-10.37,24.5-24.05v-32.24c.01-20.28,10.53-38.49,26.36-48.7,18.07-11.66,39.92-12.26,58.38-2.74,3.07,1.58,3.91,4.84,2.76,7.38-1.21,2.68-4.51,4.3-7.5,2.76-15-7.73-32.52-7.55-47.31,1.93-12.74,8.16-21.43,22.86-21.43,39.35v32.24c0,19.66-15.91,35.14-35.03,35.31s-35.55-15.42-35.61-35.3l-.05-16.48c-3.89.75-7.29.75-11.24,0l.1,17.99c.14,25.76,22.49,45.65,47.54,45.07,25.42-.59,45.64-21.54,45.61-47.33l-.04-31.56c-.03-19.65,15.74-35.16,34.76-35.45,19.5-.3,35.8,15.3,35.89,35.19l.12,28.19h11.15s-.02-28.62-.02-28.62c-.02-21.26-13.81-26.88-6.2-32.5,2.02-1.48,5.77-1.7,7.55.86,6.5,9.38,9.88,20.43,9.91,31.91l.1,32.74c12.78,7.75,19.13,21.92,15.97,36.56-2.96,13.73-14.33,23.76-28.41,26.41h-9c-14.15-2.66-25.47-12.74-28.42-26.41-3.16-14.66,3.15-28.81,16-36.56l-.06-33.06c-.03-13.24-11.09-23.37-23.85-23.47-12.36-.1-24.02,9.65-24.08,22.81l-.17,33.67c-.16,32.07-26,57.71-57.55,57.87-31.25.16-58.03-25.04-58.05-57.18l-.05-77.49c-57.65-8.29-100.95-58.12-100.45-116.84.06-7.02,4.79-12.33,11.11-15.29l.14-54.26c.05-19.35,12.8-35.4,31.01-40.82,1.95-9.1,8.66-14.57,16.93-16.97h18.75ZM109.16,30.66c5.8-.04,9.45-5.18,9.29-9.99s-4.21-9.39-9.67-9.39h-11.29c-5.71,0-9.86,4.8-9.67,10.05.17,4.94,4.19,9.43,9.69,9.4l11.67-.07ZM206.66,30.66c5.8-.04,9.45-5.18,9.29-9.99s-4.21-9.39-9.67-9.39h-11.29c-5.71,0-9.86,4.8-9.67,10.05.17,4.94,4.19,9.43,9.69,9.4l11.67-.07ZM311.98,328.13c-12.97,2.22-20.64,14.45-18.27,26.48,2.35,11.92,13.85,19.86,25.82,17.79,12.17-2.1,20.5-13.71,18.37-25.94s-13.19-20.52-25.92-18.34Z"/>
  <path class="st0" d="M311.98,328.13c12.73-2.18,23.86,6.51,25.92,18.34s-6.2,23.84-18.37,25.94c-11.96,2.06-23.47-5.87-25.82-17.79-2.37-12.03,5.3-24.26,18.27-26.48ZM312.82,345.52c-3.12,1.85-3.27,5.8-1.5,8.14,1.66,2.2,5.01,2.73,7.36,1.34,2.66-1.56,3.34-5.11,1.81-7.71-1.38-2.36-4.76-3.49-7.67-1.77Z"/>
  <path class="st0" d="M109.16,30.66l-11.67.07c-5.5.04-9.51-4.45-9.69-9.4-.18-5.25,3.96-10.05,9.67-10.05h11.29c5.46,0,9.5,4.4,9.67,9.39s-3.49,9.95-9.29,9.99Z"/>
  <path class="st0" d="M206.66,30.66l-11.67.07c-5.5.04-9.51-4.45-9.69-9.4-.18-5.25,3.96-10.05,9.67-10.05h11.29c5.46,0,9.5,4.4,9.67,9.39s-3.49,9.95-9.29,9.99Z"/>
  <path d="M312.82,345.52c2.9-1.72,6.29-.59,7.67,1.77,1.53,2.61.85,6.15-1.81,7.71-2.36,1.39-5.71.86-7.36-1.34-1.77-2.35-1.61-6.3,1.5-8.14Z"/>
</svg>