<?xml version="1.0" encoding="UTF-8"?>
<svg id="Calque_1" xmlns="http://www.w3.org/2000/svg" version="1.1" viewBox="0 0 384 384">
  <!-- Generator: Adobe Illustrator 30.1.0, SVG Export Plug-In . SVG Version: 2.1.1 Build 136)  -->
  <defs>
    <style>
      .st0 {
        fill: #fff;
      }
    </style>
  </defs>
  <path class="st0" d="M0,75.75V0h384v185.25c-2.3-13.31-7.59-26.18-19.86-33.49-4.39-21.49-35.78-31.22-55.15-31.97-8.97-.35-17.35-1.05-26.22-2.23-3.23-.43-5.76,1.5-6.33,4.62-.44,2.39,1.24,5.85,4.49,6.37,9.15,1.46,17.99,2.14,27.33,2.47,12.79.45,25.09,3.97,35.63,11,13.15,8.79,6.71,15.3,11.01,17.44,6.23,3.09,10.71,7.32,13.76,13.61,14.44,29.81-11.57,64.45-33.99,82.55l-12.62-.12-.04-3.58c-.01-.87,1.57-1.56,2.69-2.05,13.5-5.95,19.84-21.5,12.7-34.59-5.59-10.25-16.53-15.23-28.36-14.15l.05-10.65c.03-6.94-4.98-12.13-12.09-11.9-23.67.77-69.12-1.86-80.93-27l11.29-.07c3.41-.02,6.47-1.84,7.81-4.48,4.98-9.76-10.76-12.68-8.59-32.04,9.5,3.21,18.57,5.92,28.13,8.31,3.17.79,6.12-1.46,6.77-4.03.85-3.41-1.23-6.21-4.69-7.07-10.2-2.53-19.95-5.51-29.78-9.19-4.74-1.77-9.82.99-10.92,5.86-2.48,10.93-.35,21.52,5.72,31.27l-9.64-.11c-2.52-.03-5.27,1.01-6.79,2.74-1.63,1.85-2.6,5.08-1.83,7.69,4.11,13.83,14.21,22.91,27.48,29.11l-5.14,49.1c-.47,4.51.84,8.63,4.56,11.21l18.36,12.74-13.13,11.58c-2.69,2.37-2.93,5.98-3.14,9.58-.53,8.95,5.52,17.41,14.97,17.45l34.08.12-.06,5.13c-4.33.86-7.24,3.38-8.28,7.39l-6.8,26.29c-.81,3.13.37,6.71,2.45,8.84,1.9,1.95,5.38,3.64,8.66,2.91l67.88-15.11c4.6-1.02,7.89-4.85,7.84-9.52l-.14-11.97c-.06-5.46-4.9-8.89-10.63-8.99l.07-32.68c21.52-18.3,36.66-37.79,41.46-65.63v186H0v-171.75c2.03,4.54,5.14,7.05,10.61,7.05l150.54-.02c5.39,0,9.84-3.8,9.84-9.39V78.09c0-5.31-4.26-9.41-9.24-9.44l-20.81-.11-37.55-26.69c1.56-8.03-1.17-15.53-7.84-19.94-6.09-4.03-14.32-4.19-20.8.46-5.83,4.18-8.84,11.55-7.14,19.47l-37.55,26.72-20.15.02c-4.98,0-8.06,2.99-9.91,7.17ZM190.67,275.1c-5.68,5.87-8.53,13.15-8.54,21.19l-.03,57.62h-95.82c-3.71,0-6.07,2.42-6.04,5.7.02,3.02,2.4,5.56,6.07,5.56h97.36c5.58-.01,9.69-4.23,9.69-9.68l.02-59.22c0-5.15,1.95-9.89,5.43-13.45l16.29-16.7c2.46-2.52,2.97-6.15,1.57-9.08-1.53-3.2-4.46-4.62-8.23-4.2l-56.98,6.28-117.65.52c-5.7.03-9.88,3.84-9.88,9.68v86.15c0,5.68,4.33,9.69,9.81,9.69h25.52c3.47,0,5.82-2.66,5.86-5.55.04-3.17-2.41-5.72-5.86-5.66l-24.09-.11.05-83,116.97-.35,47.46-4.85-8.98,9.47ZM101.52,330.39v-36.39c-.01-3.37-2.09-5.8-5.14-6.08s-5.18,1.71-6.37,4.91c-9.98-5.24-21.48-2.69-28.17,5.65s-6.45,20.11.38,28.19c6.76,8.01,18,10.33,27.8,5.2,1.22,3.25,3.46,5.19,6.37,4.91,3.05-.3,5.13-2.62,5.13-6.39ZM160.36,330.41v-36.43c0-3.19-2.07-5.63-4.8-6.01-3.03-.41-5.44,1.24-6.63,4.88-9.99-5.21-21.56-2.81-28.34,5.72s-6.33,19.95.3,27.92c6.91,8.3,18.16,10.43,28.06,5.41,1.23,3.69,3.65,5.23,6.62,4.83,2.77-.37,4.8-2.72,4.8-6.31Z"/>
  <path d="M384,185.25v12.75c-4.8,27.84-19.94,47.33-41.46,65.63l-.07,32.68c5.74.1,10.57,3.53,10.63,8.99l.14,11.97c.05,4.67-3.24,8.49-7.84,9.52l-67.88,15.11c-3.28.73-6.76-.96-8.66-2.91-2.08-2.13-3.26-5.71-2.45-8.84l6.8-26.29c1.04-4.01,3.95-6.53,8.28-7.39l.06-5.13-34.08-.12c-9.45-.03-15.5-8.5-14.97-17.45.21-3.6.45-7.2,3.14-9.58l13.13-11.58-18.36-12.74c-3.71-2.58-5.03-6.7-4.56-11.21l5.14-49.1c-13.27-6.2-23.37-15.28-27.48-29.11-.78-2.61.2-5.84,1.83-7.69,1.53-1.73,4.28-2.77,6.79-2.74l9.64.11c-6.06-9.75-8.2-20.34-5.72-31.27,1.11-4.87,6.18-7.63,10.92-5.86,9.83,3.68,19.58,6.66,29.78,9.19,3.46.86,5.54,3.66,4.69,7.07-.64,2.57-3.6,4.82-6.77,4.03-9.56-2.39-18.63-5.1-28.13-8.31-2.17,19.36,13.57,22.28,8.59,32.04-1.34,2.64-4.4,4.46-7.81,4.48l-11.29.07c11.81,25.13,57.26,27.77,80.93,27,7.11-.23,12.13,4.96,12.09,11.9l-.05,10.65c11.83-1.08,22.77,3.9,28.36,14.15,7.14,13.09.8,28.64-12.7,34.59-1.12.49-2.7,1.18-2.69,2.05l.04,3.58,12.62.12c22.42-18.11,48.43-52.75,33.99-82.55-3.04-6.28-7.53-10.51-13.76-13.61-4.3-2.14,2.14-8.65-11.01-17.44-10.54-7.04-22.84-10.56-35.63-11-9.34-.33-18.17-1-27.33-2.47-3.25-.52-4.93-3.98-4.49-6.37.58-3.12,3.1-5.05,6.33-4.62,8.86,1.18,17.24,1.88,26.22,2.23,19.37.76,50.76,10.49,55.15,31.97,12.27,7.31,17.56,20.18,19.86,33.49ZM331.21,266.86l-14.71-.07c-3.31-.03-5.9-2.44-5.9-5.82v-8.23c-.01-6.25,3.81-10.92,9.39-13.11,4.71-1.85,8.07-5.96,8.81-10.33.82-4.85-.85-9.51-4.54-12.86-4.03-3.66-9.66-4.93-15.11-3.85-5.68,1.12-11.16-2.5-11.29-8.58l-.32-14.17c-19.6.65-37.54-.95-55.65-6.03l-4.93,46.96,20.58,14.17c4.68,3.98,4.77,10.83.17,14.87l-12.96,11.39c-1.98,1.74-1.16,7.21,1.4,8.67l40.29.16c3.67.01,6.46,2.04,6.52,5.87l.16,10.53,38.1-.02v-29.56ZM342.04,316l-.22-8.32h-58s-5.74,22.56-5.74,22.56l63.97-14.24Z"/>
  <path d="M0,212.25V75.75c1.85-4.17,4.92-7.16,9.91-7.17l20.15-.02,37.55-26.72c-1.7-7.92,1.31-15.29,7.14-19.47,6.49-4.65,14.71-4.49,20.8-.46,6.67,4.41,9.4,11.9,7.84,19.94l37.55,26.69,20.81.11c4.98.03,9.25,4.13,9.25,9.44v131.8c0,5.59-4.45,9.39-9.84,9.39l-150.54.02c-5.47,0-8.58-2.52-10.61-7.05ZM84.27,30.29c-4.3.78-6.68,4.85-5.55,8.97.93,3.37,4.59,5.78,8.44,4.84,3.53-.86,6.02-4.28,5.23-8.35-.65-3.33-4.06-6.2-8.12-5.46ZM121.28,68.47l-24.07-17.13c-7.45,5.9-16.37,5.46-23.59.02l-23.88,17.11h71.54ZM159.76,208.02l-.02-128.18H11.26s-.02,128.2-.02,128.2l148.51-.02Z"/>
  <path d="M190.67,275.1l8.98-9.47-47.46,4.85-116.97.35-.05,83,24.09.11c3.45-.06,5.9,2.5,5.86,5.66-.03,2.89-2.38,5.55-5.86,5.55h-25.52c-5.48,0-9.81-4.01-9.81-9.69v-86.15c0-5.84,4.17-9.65,9.88-9.68l117.65-.52,56.98-6.28c3.77-.41,6.7,1.01,8.23,4.2,1.4,2.93.89,6.55-1.57,9.08l-16.29,16.7c-3.47,3.56-5.42,8.3-5.43,13.45l-.02,59.22c0,5.45-4.11,9.67-9.69,9.67h-97.36c-3.68.01-6.05-2.53-6.07-5.55-.03-3.27,2.33-5.7,6.04-5.7h95.82s.03-57.62.03-57.62c0-8.03,2.86-15.32,8.54-21.19Z"/>
  <path d="M160.36,330.41c0,3.6-2.02,5.94-4.8,6.31-2.97.4-5.39-1.14-6.62-4.83-9.89,5.02-21.15,2.89-28.06-5.41-6.63-7.97-6.81-19.74-.3-27.92s18.36-10.93,28.34-5.72c1.2-3.64,3.61-5.29,6.63-4.88,2.72.37,4.79,2.81,4.79,6.01v36.43ZM134.99,301.84c-6.35,1.84-9.09,8.36-7.48,13.58,1.84,5.99,7.89,9.11,13.55,7.5s9.07-7.64,7.69-13.09c-1.51-5.96-7.36-9.85-13.76-8Z"/>
  <path d="M101.52,330.39c0,3.77-2.08,6.09-5.13,6.39s-5.15-1.66-6.37-4.91c-9.8,5.13-21.04,2.81-27.8-5.2-6.83-8.08-7-19.94-.38-28.19s18.19-10.89,28.17-5.65c1.2-3.21,3.48-5.18,6.37-4.91,3.04.28,5.13,2.71,5.13,6.08v36.39ZM75.76,301.96c-6.36,2.15-8.88,8.87-6.81,14.25s8.21,8.36,13.62,6.59c5.9-1.92,8.98-8.2,7.09-13.88s-7.76-9.04-13.9-6.97Z"/>
  <path class="st0" d="M331.21,266.86v29.56s-38.1.02-38.1.02l-.16-10.53c-.06-3.84-2.85-5.86-6.52-5.87l-40.29-.16c-2.57-1.46-3.39-6.93-1.4-8.67l12.96-11.39c4.6-4.04,4.51-10.9-.17-14.87l-20.58-14.17,4.93-46.96c18.11,5.08,36.05,6.68,55.65,6.03l.32,14.17c.14,6.09,5.62,9.71,11.29,8.58,5.45-1.08,11.09.19,15.11,3.85,3.69,3.35,5.36,8.01,4.54,12.86-.74,4.37-4.1,8.48-8.81,10.33-5.58,2.19-9.4,6.86-9.4,13.11v8.23c0,3.38,2.6,5.79,5.91,5.82l14.71.07Z"/>
  <polygon class="st0" points="342.04 316 278.07 330.25 283.82 307.7 341.82 307.69 342.04 316"/>
  <path class="st0" d="M159.76,208.02l-148.51.02.02-128.2h148.47s.02,128.18.02,128.18ZM106.76,170.84l6.36,16.7c1.15,3.01,4.28,4.35,7.12,3.41,2.51-.83,4.7-3.92,3.46-7.18l-31.19-81.93c-1.29-3.4-4.14-5.25-7.4-5.16-2.8.08-5.65,1.76-6.85,4.94l-31,82.17c-1.22,3.25.93,6.36,3.48,7.17,2.89.93,5.91-.39,7.09-3.44l6.44-16.71,42.48.04Z"/>
  <path class="st0" d="M121.28,68.47H49.74s23.88-17.11,23.88-17.11c7.22,5.44,16.14,5.89,23.59-.02l24.07,17.13Z"/>
  <path class="st0" d="M84.27,30.29c4.06-.74,7.47,2.13,8.12,5.46.79,4.07-1.7,7.49-5.23,8.35-3.84.94-7.51-1.47-8.44-4.84-1.13-4.12,1.25-8.19,5.55-8.97Z"/>
  <path class="st0" d="M134.99,301.84c6.4-1.85,12.25,2.04,13.76,8,1.38,5.45-1.96,11.46-7.69,13.09s-11.71-1.51-13.55-7.5c-1.61-5.22,1.13-11.74,7.48-13.58Z"/>
  <path class="st0" d="M75.76,301.96c6.14-2.07,12.06,1.42,13.9,6.97s-1.19,11.95-7.09,13.88c-5.41,1.76-11.46-.98-13.62-6.59s.44-12.1,6.81-14.25Z"/>
  <path d="M106.76,170.84l-42.48-.04-6.44,16.71c-1.18,3.06-4.2,4.37-7.09,3.44-2.55-.82-4.7-3.93-3.48-7.17l31-82.17c1.2-3.18,4.05-4.86,6.85-4.94,3.26-.09,6.1,1.76,7.4,5.16l31.19,81.93c1.24,3.25-.95,6.35-3.46,7.18-2.84.94-5.97-.4-7.12-3.41l-6.36-16.7ZM102.34,159.35l-17.03-44.29-16.84,44.5,33.88-.21Z"/>
  <polygon class="st0" points="102.34 159.35 68.46 159.56 85.3 115.05 102.34 159.35"/>
</svg>