<?xml version="1.0" encoding="UTF-8"?>
<svg id="Calque_1" xmlns="http://www.w3.org/2000/svg" version="1.1" viewBox="0 0 45.01 45.01">
  <!-- Generator: Adobe Illustrator 30.1.0, SVG Export Plug-In . SVG Version: 2.1.1 Build 136)  -->
  <defs>
    <style>
      .st0 {
        fill: #fff;
      }
    </style>
  </defs>
  <path class="st0" d="M7.02,45.01H0V0h45.01v45.01h-15.27c1.69-.27,3.24-.95,4.48-2.2l4.76-4.75c2.97-2.96,3.07-7.65.19-10.62s-7.67-3.08-10.64-.11l-4.77,4.76c-1.14-.46-2.25-.61-3.55-.55v-1.53c3.07-1.36,5.26-4.11,5.82-7.5,1.8-.35,3.15-1.84,3.15-3.73v-2.38c-.08-4.35-2.31-8.32-6-10.63-.13-1.66-.91-3.1-2.21-4.13-2.61-2.08-6.37-2.09-8.99-.03-1.32,1.03-2.12,2.48-2.25,4.16-3.77,2.36-6.02,6.45-6,10.89l.02,2.29c.01,1.78,1.31,3.22,3.06,3.54.52,3.39,2.7,6.22,5.88,7.54l.02,1.52c-4.49-.38-8.23,3.09-8.24,7.59v2.71c0,1.61,1.02,2.82,2.53,3.16Z"/>
  <path d="M29.74,45.01h-1.58c-.43-.11-.91-.21-1.4-.27-.21,0-.63.19-.79.27H7.02c-1.51-.34-2.54-1.55-2.54-3.16v-2.71c.02-4.5,3.75-7.97,8.24-7.59l-.02-1.52c-3.18-1.32-5.36-4.15-5.88-7.54-1.75-.31-3.05-1.76-3.06-3.54l-.02-2.29c-.02-4.44,2.23-8.53,6-10.89.13-1.67.93-3.12,2.25-4.16,2.63-2.06,6.38-2.05,8.99.03,1.3,1.03,2.08,2.47,2.21,4.13,3.69,2.31,5.92,6.28,6,10.63v2.38c0,1.89-1.35,3.38-3.15,3.73-.57,3.39-2.75,6.14-5.83,7.5v1.53c1.29-.06,2.4.09,3.55.55l4.77-4.76c2.97-2.96,7.77-2.86,10.64.11s2.77,7.66-.19,10.62l-4.76,4.75c-1.25,1.24-2.79,1.93-4.48,2.2ZM21.5,4.85c-.83-2.11-2.84-3.33-5-3.27-2.18-.07-4.22,1.15-5.04,3.28,3.3-1.38,6.78-1.35,10.04,0ZM21.55,12.23c.81.27,1.63.43,2.49.5,1.3.11,2.18,1.14,2.19,2.41.54.16.97.37,1.43.62-.44-5.98-5.44-10.47-11.29-10.42S5.69,9.91,5.29,15.76c.49-.29.92-.48,1.46-.63.12-.85.47-1.65,1.21-2.18,2.71-1.94,5.9-3.01,9.24-3.13,1.85-.06,1.67,1.51,4.36,2.4ZM24.71,20.94v-5.92c0-.48-.4-.77-.84-.81-2.32-.21-4.44-.91-6.03-2.65-.11-.12-.37-.25-.55-.24-3.05.1-5.93,1.06-8.41,2.81-.39.27-.65.73-.64,1.22l.04,6.41c.03,4.4,4.13,7.72,8.48,7.52,4.44-.21,7.95-3.85,7.95-8.34ZM6.74,16.93s-.02-.18-.05-.17c-.85.19-1.49,1.21-1.45,2.15.04.87.52,1.69,1.49,2.01v-3.98ZM26.21,20.91c.93-.34,1.49-1.19,1.49-2.09s-.53-1.78-1.49-2.11v4.19ZM30.4,36.03c2.17.86,4.22,1.52,6.43,2.04l1.15-1.14c2.36-2.34,2.38-6.1.09-8.45s-6.03-2.44-8.43-.14c-.53.51-1.06,1.04-1.56,1.59-.17,1.86,1.25,4.56,2.32,6.1ZM18.71,32.26v-1.74c-1.54.37-2.97.34-4.49,0v1.77c0,1.26,1.04,2.22,2.23,2.23s2.26-.96,2.26-2.27ZM31.31,43.04c.77-.39,1.33-.76,1.85-1.29-2.74-2.88-5.65-6.45-6.51-10.41l-1.68,1.67c.95,3.65,3.74,7.32,6.34,10.03ZM7.55,43.51h7.66c-1.63-3.28-2.47-6.77-2.48-10.45-3.5-.4-6.72,2.23-6.73,5.81v3.16c0,.85.69,1.49,1.55,1.48ZM24.41,43.5c-3.18-2.45-3.91-6.82-1.69-10.18-.81-.27-1.65-.32-2.51-.28,0,3.66-.86,7.17-2.48,10.47h6.68ZM23.81,34.45c-1.23,1.95-1.14,4.47.12,6.38s3.36,2.92,5.69,2.64c-2.41-2.76-4.47-5.44-5.81-9.02ZM18.58,35.4c-1.33.82-2.83.85-4.2,0,.26,2.58.96,4.94,2.09,7.26,1.14-2.27,1.83-4.68,2.11-7.27ZM35.58,39.33l-3.48-1.04c.71.9,1.36,1.6,2.13,2.4l1.36-1.36Z"/>
  <path class="st0" d="M28.16,45.01h-2.19c.17-.08.59-.27.79-.27.48.06.97.16,1.4.27Z"/>
  <path class="st0" d="M24.71,20.94c0,4.48-3.51,8.13-7.95,8.34-4.35.21-8.46-3.12-8.48-7.52l-.04-6.41c0-.49.26-.95.64-1.22,2.48-1.75,5.36-2.71,8.41-2.81.18,0,.44.12.55.24,1.59,1.74,3.72,2.44,6.03,2.65.44.04.84.33.84.81v5.92ZM16.41,25.57c-.97,0-1.85-.33-2.39-1.16-.23-.36-.7-.44-1.03-.23-.31.2-.46.63-.25.97.79,1.32,2.17,1.93,3.68,1.92s2.87-.63,3.62-1.95c.21-.36.02-.81-.33-.98-1.14-.56-.82,1.41-3.29,1.43Z"/>
  <path class="st0" d="M21.55,12.23c-2.69-.89-2.51-2.47-4.36-2.4-3.34.12-6.53,1.19-9.24,3.13-.74.53-1.09,1.33-1.21,2.18-.54.15-.97.34-1.46.63.4-5.85,5.29-10.38,11.08-10.43s10.84,4.44,11.29,10.42c-.47-.26-.9-.46-1.43-.62,0-1.27-.89-2.3-2.19-2.41-.86-.07-1.68-.23-2.49-.5Z"/>
  <path class="st0" d="M7.55,43.51c-.85,0-1.55-.63-1.55-1.48v-3.16c.01-3.57,3.23-6.2,6.73-5.81.02,3.68.86,7.17,2.48,10.45h-7.66ZM11.23,39.77c.44,0,.75-.37.74-.76s-.31-.72-.74-.73l-.75-.02c-.05-.49-.38-.73-.78-.72-.36.01-.63.25-.72.7-.18.02-.44.03-.64.03-.48,0-.84.29-.85.74,0,.39.3.76.75.76h2.99Z"/>
  <path class="st0" d="M30.4,36.03c-1.07-1.54-2.49-4.24-2.32-6.1.5-.55,1.03-1.08,1.56-1.59,2.39-2.3,6.16-2.18,8.43.14s2.27,6.11-.09,8.45l-1.15,1.14c-2.21-.52-4.26-1.18-6.43-2.04ZM37.88,32.94c.25-1.3-.18-2.52-1.02-3.36-.89-.89-2.13-1.25-3.37-1.01-.87-.34-1.81-.15-2.45.49s-.83,1.56-.48,2.44c-.24,1.28.15,2.53,1.06,3.41s2.11,1.21,3.36.98c.88.35,1.82.12,2.44-.52s.79-1.52.46-2.43Z"/>
  <path class="st0" d="M24.41,43.5h-6.68c1.62-3.29,2.47-6.79,2.48-10.46.87-.05,1.7,0,2.51.28-2.22,3.36-1.49,7.73,1.69,10.18Z"/>
  <path class="st0" d="M31.31,43.04c-2.6-2.71-5.39-6.39-6.34-10.03l1.68-1.67c.86,3.96,3.77,7.54,6.51,10.41-.52.53-1.08.9-1.85,1.29Z"/>
  <path class="st0" d="M23.81,34.45c1.33,3.57,3.39,6.26,5.81,9.02-2.33.28-4.48-.82-5.69-2.64-1.26-1.91-1.35-4.42-.12-6.38Z"/>
  <path class="st0" d="M21.5,4.85c-3.27-1.35-6.74-1.37-10.04,0,.82-2.13,2.86-3.35,5.04-3.28,2.16-.06,4.17,1.16,5,3.27Z"/>
  <path class="st0" d="M18.58,35.4c-.28,2.59-.97,5-2.11,7.27-1.13-2.32-1.83-4.68-2.09-7.26,1.38.84,2.87.81,4.2,0Z"/>
  <path class="st0" d="M18.71,32.26c0,1.31-1.04,2.27-2.26,2.27s-2.23-.97-2.23-2.23v-1.77c1.51.33,2.94.36,4.48,0v1.74Z"/>
  <path class="st0" d="M6.74,16.93v3.98c-.98-.32-1.46-1.13-1.5-2.01-.04-.94.6-1.96,1.45-2.15.03,0,.05.13.05.17Z"/>
  <path class="st0" d="M26.21,20.91v-4.19c.96.33,1.49,1.2,1.49,2.11s-.56,1.75-1.49,2.09Z"/>
  <path class="st0" d="M35.58,39.33l-1.36,1.36c-.76-.8-1.41-1.5-2.13-2.4l3.48,1.04Z"/>
  <path d="M16.41,25.57c2.47-.02,2.15-1.99,3.29-1.43.35.17.54.62.33.98-.76,1.32-2.13,1.94-3.62,1.95s-2.89-.6-3.68-1.92c-.2-.34-.06-.78.25-.97.34-.21.8-.13,1.03.23.54.83,1.42,1.17,2.39,1.16Z"/>
  <path d="M11.23,39.77h-2.99c-.45,0-.76-.37-.75-.76,0-.45.36-.74.85-.74.2,0,.46-.02.64-.03.08-.45.35-.69.72-.7.4-.01.73.23.78.72l.75.02c.43.01.74.35.74.73s-.3.76-.74.76Z"/>
  <path d="M37.88,32.94c.34.91.14,1.81-.46,2.43s-1.56.88-2.44.52c-1.25.24-2.5-.13-3.36-.98s-1.3-2.14-1.06-3.41c-.34-.88-.14-1.81.48-2.44s1.58-.83,2.45-.49c1.24-.24,2.49.13,3.37,1.01s1.27,2.06,1.02,3.36ZM36.38,32.78c.21-.82-.03-1.61-.57-2.14-.57-.56-1.34-.77-2.14-.57-.62.16-1.08-.52-1.6.09-.46.53.15.92.01,1.47-.21.82-.01,1.6.56,2.18.53.53,1.32.79,2.12.57.65-.17,1.07.52,1.61-.08.49-.55-.15-.9.01-1.53Z"/>
  <path class="st0" d="M36.38,32.78c-.16.63.48.97-.01,1.53-.54.6-.96-.09-1.61.08-.8.21-1.59-.04-2.12-.57-.58-.58-.77-1.37-.56-2.18.14-.55-.47-.94-.01-1.47.53-.61.98.07,1.6-.09.8-.2,1.57.01,2.14.57s.79,1.32.57,2.14Z"/>
</svg>